<svg width="17" height="17" viewBox="0 0 17 17" fill="none" xmlns="http://www.w3.org/2000/svg">
<g id="Facebook svg" clip-path="url(#clip0_3151_67756)">
<g id="g10">
<g id="g12">
<path id="path14" d="M16.25 8.5004C16.25 4.22019 12.7802 0.7504 8.5 0.7504C4.21979 0.7504 0.75 4.22019 0.75 8.5004C0.75 12.3686 3.58406 15.5748 7.28906 16.1562V10.7406H5.32129V8.5004H7.28906V6.79298C7.28906 4.85063 8.44608 3.77774 10.2164 3.77774C11.0643 3.77774 11.9512 3.92911 11.9512 3.92911V5.83634H10.9739C10.0112 5.83634 9.71094 6.43374 9.71094 7.04662V8.5004H11.8604L11.5167 10.7406H9.71094V16.1562C13.4159 15.5748 16.25 12.3686 16.25 8.5004Z" fill="white"/>
</g>
</g>
</g>
<defs>
<clipPath id="clip0_3151_67756">
<rect width="15.5" height="15.5" fill="white" transform="translate(0.75 0.750977)"/>
</clipPath>
</defs>
</svg>
