<svg width="17" height="17" viewBox="0 0 17 17" fill="none" xmlns="http://www.w3.org/2000/svg">
<g id="Instagram svg" clip-path="url(#clip0_3151_67753)">
<path id="Vector" d="M5.29027 0.805178C4.46567 0.844083 3.90256 0.975678 3.41028 1.16912C2.90079 1.36767 2.46896 1.63412 2.0393 2.06533C1.60964 2.49654 1.34506 2.92868 1.1479 3.43894C0.957093 3.9323 0.827823 4.49588 0.791398 5.32095C0.754973 6.14601 0.746913 6.41122 0.750943 8.51581C0.754973 10.6204 0.764273 10.8842 0.804263 11.711C0.843633 12.5354 0.974763 13.0984 1.1682 13.5908C1.36707 14.1003 1.6332 14.532 2.06457 14.9618C2.49593 15.3916 2.92776 15.6556 3.43926 15.853C3.93216 16.0435 4.4959 16.1734 5.32081 16.2095C6.14572 16.2457 6.41123 16.254 8.5152 16.25C10.6192 16.246 10.8841 16.2367 11.7107 16.1975C12.5373 16.1582 13.0973 16.0262 13.5899 15.8337C14.0994 15.6343 14.5314 15.3687 14.9609 14.9371C15.3904 14.5056 15.6548 14.0732 15.8518 13.5626C16.0428 13.0697 16.1725 12.506 16.2083 11.6817C16.2444 10.8544 16.253 10.5903 16.2489 8.48605C16.2449 6.38177 16.2354 6.11796 16.1962 5.2915C16.157 4.46504 16.0257 3.90378 15.8324 3.41104C15.6333 2.90155 15.3674 2.47019 14.9362 2.04006C14.505 1.60994 14.0723 1.34566 13.5618 1.14912C13.0686 0.958318 12.5052 0.828273 11.6803 0.792623C10.8554 0.756973 10.5899 0.747828 8.48513 0.751858C6.38039 0.755888 6.11689 0.764878 5.29027 0.805178ZM5.38079 14.8153C4.62517 14.7825 4.21488 14.6569 3.94146 14.5518C3.57938 14.4123 3.32146 14.2437 3.04897 13.9738C2.77648 13.704 2.60908 13.4451 2.46772 13.0838C2.36155 12.8104 2.23367 12.4006 2.19833 11.6449C2.15989 10.8283 2.15183 10.583 2.14734 8.51395C2.14284 6.44485 2.15075 6.19995 2.18655 5.38295C2.21879 4.62794 2.34512 4.21719 2.45005 3.94393C2.58955 3.58138 2.75757 3.32393 3.02805 3.05159C3.29852 2.77926 3.5566 2.61155 3.91821 2.47019C4.19132 2.36355 4.60114 2.23676 5.35646 2.2008C6.17377 2.16205 6.41867 2.1543 8.48746 2.1498C10.5562 2.14531 10.8018 2.15306 11.6194 2.18902C12.3744 2.22188 12.7853 2.34696 13.0583 2.45252C13.4205 2.59202 13.6783 2.75957 13.9506 3.03051C14.2229 3.30145 14.3908 3.5586 14.5321 3.92099C14.6389 4.19332 14.7657 4.60299 14.8014 5.35877C14.8403 6.17608 14.8491 6.42114 14.8528 8.48977C14.8566 10.5584 14.8493 10.8041 14.8135 11.6208C14.7805 12.3764 14.6552 12.7868 14.55 13.0606C14.4105 13.4225 14.2423 13.6806 13.9717 13.9527C13.701 14.2249 13.4433 14.3926 13.0815 14.534C12.8087 14.6405 12.3984 14.7676 11.6437 14.8035C10.8264 14.842 10.5815 14.85 8.51195 14.8545C6.44239 14.859 6.19826 14.8507 5.38095 14.8153M11.6987 4.35886C11.6991 4.54281 11.7539 4.72254 11.8564 4.87531C11.9588 5.02809 12.1043 5.14704 12.2744 5.21714C12.4444 5.28724 12.6315 5.30533 12.8118 5.26911C12.9922 5.2329 13.1577 5.14402 13.2876 5.01371C13.4174 4.8834 13.5057 4.71752 13.5412 4.53703C13.5768 4.35655 13.558 4.16958 13.4873 3.99977C13.4165 3.82996 13.2971 3.68493 13.1439 3.58303C12.9908 3.48114 12.8108 3.42695 12.6269 3.42731C12.3803 3.42781 12.144 3.52622 11.9699 3.70091C11.7959 3.8756 11.6983 4.11227 11.6987 4.35886ZM4.5207 8.50868C4.52504 10.7066 6.31002 12.4843 8.50745 12.4801C10.7049 12.4759 12.4838 10.6911 12.4796 8.49318C12.4755 6.29528 10.69 4.51712 8.49226 4.52146C6.29452 4.5258 4.51651 6.31109 4.5207 8.50868ZM5.91663 8.50589C5.91562 7.99494 6.06614 7.49517 6.34917 7.06978C6.63219 6.64438 7.035 6.31247 7.50667 6.116C7.97833 5.91954 8.49766 5.86735 8.99898 5.96604C9.50031 6.06473 9.96111 6.30986 10.3231 6.67044C10.6851 7.03101 10.9321 7.49084 11.0328 7.99177C11.1334 8.4927 11.0833 9.01223 10.8887 9.48467C10.6941 9.95711 10.3638 10.3612 9.93951 10.6459C9.51524 10.9306 9.01607 11.0831 8.50513 11.0842C8.16586 11.0849 7.82978 11.0187 7.51607 10.8896C7.20236 10.7604 6.91718 10.5706 6.67681 10.3312C6.43644 10.0918 6.24558 9.80736 6.11515 9.49417C5.98472 9.18097 5.91726 8.84515 5.91663 8.50589Z" fill="white"/>
</g>
<defs>
<clipPath id="clip0_3151_67753">
<rect width="15.5" height="15.5" fill="white" transform="translate(0.75 0.750977)"/>
</clipPath>
</defs>
</svg>
