<svg width="247" height="24" viewBox="0 0 247 24" fill="none" xmlns="http://www.w3.org/2000/svg">
<path d="M13.8911 10.9875C14.8693 10.2047 15.88 8.28105 15.88 6.25921C15.88 3.16192 13.4673 0.585839 8.9347 0.585839H2.15208C0.978184 0.585839 0 1.56407 0 2.73771V21.2581C0 22.4645 0.978233 23.4105 2.15208 23.4105C3.35847 23.4105 4.3369 22.4645 4.3369 21.2581V13.6281H9.06492C11.1191 13.6281 12.9125 14.7045 12.9125 16.3672C12.9125 17.3782 12.5539 17.9977 12.4234 18.5845C12.1625 19.5954 12.4234 20.4105 13.4016 20.9323C14.445 21.4864 15.7494 21.1605 16.3362 20.1173C16.9557 19.0409 17.2492 17.8346 17.2492 16.3345C17.2492 13.9873 15.7498 11.868 13.8911 10.9875ZM8.60885 9.78107H4.3374V4.4008H8.60885C10.8587 4.4008 11.8696 5.70491 11.8696 7.10721C11.8696 8.73722 10.4675 9.78107 8.60885 9.78107Z" fill="#61B889"/>
<path d="M8.6412 23.413C7.43481 23.413 6.48914 22.4348 6.48914 21.2607C6.48914 20.0544 7.43481 19.0762 8.6412 19.0762C9.84779 19.0762 10.7933 20.0544 10.7933 21.2607C10.7933 22.4348 9.84779 23.413 8.6412 23.413Z" fill="#EBEB4E"/>
<path d="M40.6534 14.0876L34.8496 1.82727C34.4909 1.07725 33.7082 0.588135 32.8932 0.588135C32.0454 0.588135 31.2954 1.07724 30.9368 1.82727L22.1328 20.3154C21.6437 21.3913 22.1003 22.6958 23.1762 23.2172C24.2521 23.7063 25.524 23.25 26.0456 22.174L28.0999 17.8699H39.0557C39.8057 17.8699 40.4577 17.4785 40.8491 16.8917C41.5991 15.7831 41.012 14.8377 40.6534 14.0876ZM29.8604 14.1526L32.893 7.76171L35.958 14.1526H29.8604Z" fill="#61B889"/>
<path d="M43.8481 21.2583C43.8481 22.4324 42.8699 23.4107 41.6636 23.4107C40.4897 23.4107 39.5115 22.4324 39.5115 21.2583C39.5115 20.052 40.4897 19.0738 41.6636 19.0738C42.8699 19.0738 43.8481 20.052 43.8481 21.2583Z" fill="#EBEB4E"/>
<path d="M59.7273 0C61.9119 0 64.9767 0.424083 67.4554 2.4459C68.3682 3.19547 68.4336 4.50003 67.7486 5.4782C67.0968 6.39094 65.7922 6.26051 64.749 5.70639C63.3795 5.02181 61.7817 4.33684 59.7275 4.33684C55.4883 4.33684 52.0646 7.76051 52.0646 11.9997C52.0646 16.2384 55.4883 19.6621 59.7275 19.6621C61.423 19.6621 63.4121 19.1407 64.8466 18.3252V13.8256C64.8466 12.6515 65.792 11.6733 66.9984 11.6733C68.2053 11.6733 69.1508 12.6515 69.1508 13.8256V18.9446C69.1508 19.5315 69.1508 19.9883 68.9226 20.4774C68.7267 20.8683 68.4008 21.1619 67.9766 21.4555C65.8248 22.9878 62.5645 23.9988 59.7275 23.9988C53.1081 23.9988 47.7278 18.6185 47.7278 11.9996C47.7278 5.34795 53.1079 0 59.7273 0Z" fill="#61B889"/>
<path d="M60.5434 11.6742C61.7171 11.6742 62.6953 12.6524 62.6953 13.8265C62.6953 15.0329 61.7171 16.011 60.5434 16.011C59.337 16.011 58.3588 15.0328 58.3588 13.8265C58.3588 12.6524 59.3371 11.6742 60.5434 11.6742Z" fill="#EBEB4E"/>
<path d="M96.3923 18.7504C97.6314 19.4676 98.9357 19.8263 100.533 19.9895C102.099 20.1522 102.751 20.935 102.751 21.9459C102.751 23.0218 102.033 24 100.012 24C98.3485 24 96.6857 23.6414 95.023 22.8913C90.8818 20.9677 88.0125 16.8263 88.0125 12.0009C88.0125 5.34922 93.3928 0.00129532 100.012 0.00129532C102.196 0.00129532 105.261 0.425379 107.74 2.4472C108.653 3.19676 108.718 4.50132 108.033 5.4795C107.446 6.35999 106.24 6.39223 105.033 5.74041C103.729 4.9904 102.066 4.33812 100.012 4.33812C95.7729 4.33812 92.3494 7.76179 92.3494 12.001C92.3494 14.9355 93.9468 17.4132 96.3923 18.7504Z" fill="#61B889"/>
<path d="M104.509 19.661C104.509 18.4873 105.487 17.5091 106.661 17.5091C107.867 17.5091 108.845 18.4873 108.845 19.661C108.845 20.8674 107.867 21.8455 106.661 21.8455C105.487 21.8455 104.509 20.8673 104.509 19.661Z" fill="#EBEB4E"/>
<path d="M115.178 2.73691C115.178 1.56327 116.156 0.585044 117.33 0.585044C118.536 0.585044 119.514 1.56327 119.514 2.73691V10.2365H128.905V9.22563C128.905 8.05199 129.883 7.07376 131.09 7.07376C132.264 7.07376 133.242 8.05199 133.242 9.22563V21.2576C133.242 22.4317 132.264 23.4099 131.09 23.4099C129.883 23.4099 128.905 22.4317 128.905 21.2576V14.3108H119.51V21.2561C119.51 22.4302 118.532 23.4084 117.325 23.4084C116.151 23.4084 115.173 22.4302 115.173 21.2561L115.178 2.73691Z" fill="#61B889"/>
<path d="M128.902 2.73691C128.902 1.56327 129.88 0.585044 131.087 0.585044C132.261 0.585044 133.239 1.56327 133.239 2.73691C133.239 3.94329 132.261 4.92146 131.087 4.92146C129.88 4.92146 128.902 3.94324 128.902 2.73691Z" fill="#EBEB4E"/>
<path d="M158.346 14.0876L152.543 1.82727C152.184 1.07725 151.401 0.588135 150.586 0.588135C149.739 0.588135 148.989 1.07724 148.63 1.82727L139.826 20.3154C139.337 21.3913 139.793 22.6958 140.869 23.2172C141.945 23.7063 143.217 23.25 143.739 22.174L145.793 17.8699H156.749C157.499 17.8699 158.151 17.4785 158.542 16.8917C159.292 15.7831 158.705 14.8377 158.346 14.0876ZM147.553 14.1526L150.586 7.76171L153.651 14.1526H147.553Z" fill="#61B889"/>
<path d="M161.541 21.2583C161.541 22.4324 160.563 23.4107 159.357 23.4107C158.183 23.4107 157.205 22.4324 157.205 21.2583C157.205 20.052 158.183 19.0738 159.357 19.0738C160.563 19.0738 161.541 20.052 161.541 21.2583Z" fill="#EBEB4E"/>
<path d="M173.181 21.2583C173.181 22.4324 172.235 23.4107 171.028 23.4107C169.822 23.4107 168.876 22.4324 168.876 21.2583V4.92246H164.148C162.975 4.92246 161.996 3.94423 161.996 2.7379C161.996 1.56426 162.975 0.58603 164.148 0.58603H171.028C172.333 0.58603 173.181 1.56426 173.181 2.7379V21.2583Z" fill="#61B889"/>
<path d="M180.063 2.73691C180.063 3.94329 179.085 4.92146 177.91 4.92146C176.704 4.92146 175.726 3.94324 175.726 2.73691C175.726 1.56327 176.704 0.585044 177.91 0.585044C179.085 0.585044 180.063 1.56327 180.063 2.73691Z" fill="#EBEB4E"/>
<path d="M194.489 21.2583C194.489 22.4324 193.543 23.4107 192.337 23.4107C191.13 23.4107 190.185 22.4324 190.185 21.2583V4.92246H185.456C184.283 4.92246 183.305 3.94423 183.305 2.7379C183.305 1.56426 184.283 0.58603 185.456 0.58603H192.337C193.641 0.58603 194.489 1.56426 194.489 2.7379V21.2583Z" fill="#61B889"/>
<path d="M201.366 2.73691C201.366 3.94329 200.388 4.92146 199.214 4.92146C198.007 4.92146 197.029 3.94324 197.029 2.73691C197.029 1.56327 198.007 0.585044 199.214 0.585044C200.388 0.585044 201.366 1.56327 201.366 2.73691Z" fill="#EBEB4E"/>
<path d="M209.044 23.413C207.871 23.413 206.893 22.4348 206.893 21.2607V2.74028C206.893 1.56664 207.871 0.58843 209.044 0.58843H213.544C214.718 0.58843 215.696 1.56664 215.696 2.74028C215.696 3.94666 214.718 4.92484 213.544 4.92484H211.229V9.91399H218.794C220.001 9.91399 220.946 10.7945 220.946 12.0008C220.946 13.1745 220.001 14.0549 218.794 14.0549H211.229V19.0764H220.131C221.337 19.0764 222.283 20.0546 222.283 21.261C222.283 22.4351 221.337 23.4133 220.131 23.4133L209.044 23.413Z" fill="#61B889"/>
<path d="M220.032 4.92146C218.826 4.92146 217.847 3.94324 217.847 2.73691C217.847 1.56327 218.826 0.585044 220.032 0.585044C221.206 0.585044 222.184 1.56327 222.184 2.73691C222.184 3.94329 221.206 4.92146 220.032 4.92146Z" fill="#EBEB4E"/>
<path d="M246.262 7.85743C246.262 3.42328 243.229 0.586192 238.566 0.586192H231.556C230.382 0.586192 229.404 1.56442 229.404 2.73806V21.2585C229.404 22.4326 230.382 23.4108 231.556 23.4108C232.762 23.4108 233.741 22.4326 233.741 21.2585V15.3896H238.468L239.447 16.9546C240.066 17.9655 241.403 18.2591 242.414 17.6069C244.403 16.335 242.805 14.2482 242.805 14.2482C245.055 12.9768 246.262 10.662 246.262 7.85743ZM238.468 11.6402H233.741V4.79243H238.566C240.816 4.79243 241.925 6.12974 241.925 8.11839C241.925 9.94431 241.044 11.6402 238.468 11.6402Z" fill="#61B889"/>
<path d="M244.794 23.3782C243.62 23.3782 242.641 22.4 242.641 21.2264C242.641 20.0195 243.62 19.0414 244.794 19.0414C246 19.0414 246.946 20.0196 246.946 21.2264C246.946 22.4 246 23.3782 244.794 23.3782Z" fill="#EBEB4E"/>
</svg>
