<svg width="106" height="64" viewBox="0 0 106 64" fill="none" xmlns="http://www.w3.org/2000/svg">
<g filter="url(#filter0_d_3151_67492)">
<rect x="20.2856" y="12" width="65.7143" height="40" rx="20" fill="white" shape-rendering="crispEdges"/>
<rect x="19.7856" y="11.5" width="66.7143" height="41" rx="20.5" stroke="#F2F2F2" shape-rendering="crispEdges"/>
<g clip-path="url(#clip0_3151_67492)">
<rect x="24.2856" y="16" width="32" height="32" rx="16" fill="#90A93F"/>
<path d="M52.1606 46.9219C52.081 47.0597 51.9666 47.1741 51.8288 47.2536C51.691 47.3332 51.5347 47.375 51.3755 47.375H29.6255C29.4665 47.3748 29.3104 47.3328 29.1727 47.2532C29.0351 47.1736 28.9208 47.0592 28.8414 46.9215C28.762 46.7837 28.7202 46.6275 28.7202 46.4685C28.7203 46.3095 28.7621 46.1533 28.8416 46.0156C30.5669 43.0329 33.2256 40.8942 36.3284 39.8803C34.7936 38.9667 33.6012 37.5744 32.9342 35.9175C32.2673 34.2606 32.1627 32.4305 32.6365 30.7083C33.1103 28.9862 34.1363 27.4672 35.557 26.3846C36.9776 25.302 38.7144 24.7157 40.5005 24.7157C42.2867 24.7157 44.0234 25.302 45.4441 26.3846C46.8648 27.4672 47.8908 28.9862 48.3646 30.7083C48.8384 32.4305 48.7338 34.2606 48.0668 35.9175C47.3999 37.5744 46.2075 38.9667 44.6727 39.8803C47.7755 40.8942 50.4342 43.0329 52.1594 46.0156C52.2392 46.1533 52.2812 46.3095 52.2814 46.4686C52.2816 46.6277 52.2399 46.784 52.1606 46.9219Z" fill="white"/>
</g>
<rect x="24.6071" y="16.3214" width="31.3571" height="31.3571" rx="15.6786" stroke="#BFBFBF" stroke-width="0.642857"/>
<path d="M75.5306 30.5306L70.5306 35.5306C70.4609 35.6005 70.3781 35.656 70.287 35.6939C70.1958 35.7317 70.0981 35.7512 69.9993 35.7512C69.9006 35.7512 69.8029 35.7317 69.7117 35.6939C69.6206 35.656 69.5378 35.6005 69.4681 35.5306L64.4681 30.5306C64.3272 30.3897 64.248 30.1986 64.248 29.9994C64.248 29.8001 64.3272 29.609 64.4681 29.4681C64.609 29.3272 64.8001 29.2481 64.9993 29.2481C65.1986 29.2481 65.3897 29.3272 65.5306 29.4681L70 33.9375L74.4693 29.4675C74.6102 29.3266 74.8013 29.2474 75.0006 29.2474C75.1999 29.2474 75.391 29.3266 75.5318 29.4675C75.6727 29.6084 75.7519 29.7995 75.7519 29.9987C75.7519 30.198 75.6727 30.3891 75.5318 30.53L75.5306 30.5306Z" fill="#595959"/>
</g>
<defs>
<filter id="filter0_d_3151_67492" x="0.535645" y="-2.75" width="105.214" height="79.5" filterUnits="userSpaceOnUse" color-interpolation-filters="sRGB">
<feFlood flood-opacity="0" result="BackgroundImageFix"/>
<feColorMatrix in="SourceAlpha" type="matrix" values="0 0 0 0 0 0 0 0 0 0 0 0 0 0 0 0 0 0 127 0" result="hardAlpha"/>
<feOffset dy="5"/>
<feGaussianBlur stdDeviation="9.375"/>
<feComposite in2="hardAlpha" operator="out"/>
<feColorMatrix type="matrix" values="0 0 0 0 0 0 0 0 0 0 0 0 0 0 0 0 0 0 0.08 0"/>
<feBlend mode="normal" in2="BackgroundImageFix" result="effect1_dropShadow_3151_67492"/>
<feBlend mode="normal" in="SourceGraphic" in2="effect1_dropShadow_3151_67492" result="shape"/>
</filter>
<clipPath id="clip0_3151_67492">
<rect x="24.2856" y="16" width="32" height="32" rx="16" fill="white"/>
</clipPath>
</defs>
</svg>
