<svg width="33" height="32" viewBox="0 0 33 32" fill="none" xmlns="http://www.w3.org/2000/svg">
<g clip-path="url(#clip0_3151_67493)">
<rect x="0.285645" width="32" height="32" rx="16" fill="#90A93F"/>
<path d="M28.1606 30.9219C28.081 31.0597 27.9666 31.1741 27.8288 31.2536C27.691 31.3332 27.5347 31.375 27.3755 31.375H5.62554C5.46653 31.3748 5.31037 31.3328 5.17274 31.2532C5.0351 31.1736 4.92083 31.0592 4.8414 30.9215C4.76197 30.7837 4.72017 30.6275 4.72021 30.4685C4.72026 30.3095 4.76213 30.1533 4.84163 30.0156C6.5669 27.0329 9.22561 24.8942 12.3284 23.8803C10.7936 22.9667 9.60119 21.5744 8.93424 19.9175C8.26729 18.2606 8.16268 16.4305 8.63648 14.7083C9.11029 12.9862 10.1363 11.4672 11.557 10.3846C12.9776 9.30198 14.7144 8.71567 16.5005 8.71567C18.2867 8.71567 20.0234 9.30198 21.4441 10.3846C22.8648 11.4672 23.8908 12.9862 24.3646 14.7083C24.8384 16.4305 24.7338 18.2606 24.0668 19.9175C23.3999 21.5744 22.2075 22.9667 20.6727 23.8803C23.7755 24.8942 26.4342 27.0329 28.1594 30.0156C28.2392 30.1533 28.2812 30.3095 28.2814 30.4686C28.2816 30.6277 28.2399 30.784 28.1606 30.9219Z" fill="white"/>
</g>
<rect x="0.607073" y="0.321429" width="31.3571" height="31.3571" rx="15.6786" stroke="#BFBFBF" stroke-width="0.642857"/>
<defs>
<clipPath id="clip0_3151_67493">
<rect x="0.285645" width="32" height="32" rx="16" fill="white"/>
</clipPath>
</defs>
</svg>
